<svg width="41" height="37" viewBox="0 0 41 37" fill="none" xmlns="http://www.w3.org/2000/svg">
<path d="M24.4167 10.6667V6.75004C24.4167 5.71128 24.004 4.71506 23.2695 3.98054C22.535 3.24602 21.5388 2.83337 20.5 2.83337H6.79167C5.7529 2.83337 4.75668 3.24602 4.02216 3.98054C3.28765 4.71506 2.875 5.71128 2.875 6.75004V30.25C2.875 31.2888 3.28765 32.285 4.02216 33.0195C4.75668 33.7541 5.7529 34.1667 6.79167 34.1667H20.5C21.5388 34.1667 22.535 33.7541 23.2695 33.0195C24.004 32.285 24.4167 31.2888 24.4167 30.25V26.3334" stroke="#1F1F20" stroke-width="4" stroke-linecap="round" stroke-linejoin="round"/>
<path d="M14.625 18.5H38.125M38.125 18.5L32.25 12.625M38.125 18.5L32.25 24.375" stroke="#1F1F20" stroke-width="4" stroke-linecap="round" stroke-linejoin="round"/>
</svg>
